HIERARCHY
ROOT Hips
{
	OFFSET 0.00000 0.00000 0.00000
	CHANNELS 6 Xposition Yposition Zposition Zrotation Yrotation Xrotation 
	JOINT LHipJoint
	{
		OFFSET 0 0 0
		CHANNELS 3 Zrotation Yrotation Xrotation
		JOINT LeftHip
		{
			OFFSET 1.28858 -1.83292 1.03970
			CHANNELS 3 Zrotation Yrotation Xrotation
			JOINT LeftKnee
			{
				OFFSET 2.47846 -6.80952 0.00000
				CHANNELS 3 Zrotation Yrotation Xrotation
				JOINT LeftAnkle
				{
					OFFSET 2.75274 -7.56311 0.00000
					CHANNELS 3 Zrotation Yrotation Xrotation
					JOINT LeftToe
					{
						OFFSET 0.12848 -0.35301 1.68223
						CHANNELS 3 Zrotation Yrotation Xrotation
						End Site
						{
							OFFSET 0.00000 -0.00000 0.87311
						}
					}
				}
			}
		}
	}
	JOINT RHipJoint
	{
		OFFSET 0 0 0
		CHANNELS 3 Zrotation Yrotation Xrotation
		JOINT RightHip
		{
			OFFSET -1.31183 -1.83292 1.03970
			CHANNELS 3 Zrotation Yrotation Xrotation
			JOINT RightKnee
			{
				OFFSET -2.44740 -6.72417 0.00000
				CHANNELS 3 Zrotation Yrotation Xrotation
				JOINT RightAnkle
				{
					OFFSET -2.67343 -7.34519 0.00000
					CHANNELS 3 Zrotation Yrotation Xrotation
					JOINT RightToe
					{
						OFFSET -0.16914 -0.46471 1.77626
						CHANNELS 3 Zrotation Yrotation Xrotation
						End Site
						{
							OFFSET -0.00000 -0.00000 0.92777
						}
					}
				}
			}
		}
	}
	JOINT lowerback
	{
		OFFSET 0 0 0
		CHANNELS 3 Zrotation Yrotation Xrotation
		JOINT Chest
		{
			OFFSET 0.01249 2.14252 0.03842
			CHANNELS 3 Zrotation Yrotation Xrotation
			JOINT Chest2
			{
				OFFSET -0.02957 2.14199 -0.03751
				CHANNELS 3 Zrotation Yrotation Xrotation
				JOINT lowerneck
				{
					OFFSET 0 0 0
					CHANNELS 3 Zrotation Yrotation Xrotation
					JOINT Neck
					{
						OFFSET -0.01678 1.65709 -0.05476
						CHANNELS 3 Zrotation Yrotation Xrotation
						JOINT Head
						{
							OFFSET 0.07912 1.58331 -0.11843
							CHANNELS 3 Zrotation Yrotation Xrotation
							End Site
							{
								OFFSET 0.03298 1.73940 -0.04271
							}
						}
					}
				}
				JOINT LeftCollar
				{
					OFFSET 0 0 0
					CHANNELS 3 Zrotation Yrotation Xrotation
					JOINT LeftShoulder
					{
						OFFSET 3.39556 1.16496 0.08673
CHANNELS 3 Zrotation Xrotation Yrotation
						JOINT LeftElbow
						{
OFFSET 0 -5.239100 -0.000000
CHANNELS 3 Zrotation Xrotation Yrotation
							JOINT LeftWrist
							{
OFFSET 0 -3.314670 0.000000
CHANNELS 3 Zrotation Xrotation Yrotation
								JOINT lhand
								{
									OFFSET 0 0 0
CHANNELS 3 Zrotation Xrotation Yrotation
									JOINT LFingers
									{
OFFSET 0 -0.965900 0.000000
CHANNELS 3 Zrotation Xrotation Yrotation
										End Site
										{
OFFSET 0 -0.778730 0.000000
										}
									}
								}
								JOINT LThumb
								{
OFFSET 0 0.000000 0.000000
CHANNELS 3 Zrotation Xrotation Yrotation
									End Site
									{
OFFSET 0 -0.790620 0.790620
									}
								}
							}
						}
					}
				}
				JOINT RightCollar
				{
					OFFSET 0 0 0
					CHANNELS 3 Zrotation Yrotation Xrotation
					JOINT RightShoulder
					{
						OFFSET -3.27193 1.31331 0.33940
CHANNELS 3 Zrotation Xrotation Yrotation
						JOINT RightElbow
						{
OFFSET 0 -5.302520 0.000000
CHANNELS 3 Zrotation Xrotation Yrotation
							JOINT RightWrist
							{
OFFSET 0 -3.678750 0.000000
CHANNELS 3 Zrotation Xrotation Yrotation
								JOINT rhand
								{
									OFFSET 0 0 0
CHANNELS 3 Zrotation Xrotation Yrotation
									JOINT RFingers
									{
OFFSET 0 -0.594810 0.000000
CHANNELS 3 Zrotation Xrotation Yrotation
										End Site
										{
OFFSET 0 -0.479550 0.000000
										}
									}
								}
								JOINT RThumb
								{
OFFSET 0 0.000000 0.000000
CHANNELS 3 Zrotation Xrotation Yrotation
									End Site
									{
OFFSET 0 -0.486870 0.486870
									}
								}
							}
						}
					}
				}
			}
		}
	}
}
MOTION
Frames: 5
Frame Time: 0.008333333333333333
4.218900 14.665600 16.135700 -0.027400 0.915800 -15.064700 0.000000 0.000000 0.000000 4.018100 14.387000 -16.309000 12.640700 18.648500 68.005600 -1.278800 -32.623500 -16.260500 0.822800 -5.787500 -16.169000 0.000000 0.000000 0.000000 -2.938800 -16.245000 -14.196400 -12.149300 -18.453000 66.461200 -2.269200 20.322900 -28.704300 -0.695400 5.330800 -14.854600 0.994800 0.612900 -2.565700 -1.294600 0.815900 1.404900 -1.847400 0.439900 2.914900 -3.548600 -2.613000 0.166100 6.194900 -3.959400 9.794900 2.563700 -1.892400 3.377900 0.000000 -0.000000 0.000000 69.822800 -59.310700 6.317000 22.591700 -33.639300 6.910800 -20.994200 3.825500 18.616800 0.000000 0.000000 0.000000 -7.125000 0.000000 0.000000 -30.327600 11.573100 -28.000800 0.000000 -0.000000 0.000000 -60.524000 -47.963700 -5.064300 -33.271600 -43.537800 -13.608800 10.750300 10.136500 23.037500 0.000000 0.000000 0.000000 7.125000 0.000000 -0.000000 38.187500 48.982200 -4.333100
4.218901 14.665603 16.135702 -0.027479 0.915731 -15.064644 0.000000 0.000000 0.000000 4.018203 14.387050 -16.309068 12.640702 18.648501 68.005607 -1.278789 -32.623465 -16.260529 0.822797 -5.787489 -16.168967 0.000000 0.000000 0.000000 -2.938649 -16.244954 -14.196459 -12.149286 -18.452994 66.461157 -2.269220 20.322727 -28.704359 -0.695495 5.331150 -14.855606 0.994898 0.612941 -2.565767 -1.294588 0.815950 1.404902 -1.847439 0.439927 2.914943 -3.548746 -2.613025 0.166094 6.195143 -3.959450 9.794886 2.563809 -1.892423 3.377912 0.000000 0.000000 0.000000 69.822253 -59.310933 6.317546 22.591787 -33.639396 6.910848 -20.994791 3.826866 18.616995 0.000000 0.000000 0.000000 -7.125000 0.000000 0.000000 -30.327867 11.572860 -28.001330 0.000000 0.000000 0.000000 -60.524099 -47.963669 -5.064428 -33.271502 -43.537725 -13.608732 10.750128 10.136619 23.037262 0.000000 0.000000 0.000000 7.125000 0.000000 0.000000 38.187200 48.982033 -4.332879
4.218901 14.665605 16.135704 -0.027557 0.915662 -15.064588 0.000000 0.000000 0.000000 4.018306 14.387101 -16.309136 12.640704 18.648502 68.005613 -1.278778 -32.623430 -16.260557 0.822793 -5.787477 -16.168935 0.000000 0.000000 0.000000 -2.938497 -16.244908 -14.196519 -12.149273 -18.452989 66.461114 -2.269241 20.322555 -28.704418 -0.695591 5.331501 -14.856611 0.994996 0.612982 -2.565834 -1.294576 0.816000 1.404904 -1.847478 0.439954 2.914986 -3.548893 -2.613050 0.166088 6.195386 -3.959501 9.794873 2.563919 -1.892445 3.377925 0.000000 0.000000 0.000000 69.821706 -59.311166 6.318092 22.591874 -33.639493 6.910896 -20.995383 3.828232 18.617190 0.000000 0.000000 0.000000 -7.125000 0.000000 0.000000 -30.328134 11.572621 -28.001860 0.000000 0.000000 0.000000 -60.524197 -47.963638 -5.064556 -33.271404 -43.537650 -13.608665 10.749956 10.136738 23.037025 0.000000 0.000000 0.000000 7.125000 0.000000 0.000000 38.186900 48.981866 -4.332657
4.218902 14.665608 16.135706 -0.027636 0.915594 -15.064533 0.000000 0.000000 0.000000 4.018409 14.387151 -16.309204 12.640706 18.648503 68.005620 -1.278767 -32.623394 -16.260586 0.822790 -5.787466 -16.168902 0.000000 0.000000 0.000000 -2.938346 -16.244861 -14.196578 -12.149259 -18.452983 66.461071 -2.269261 20.322382 -28.704477 -0.695686 5.331851 -14.857617 0.995093 0.613023 -2.565900 -1.294564 0.816050 1.404906 -1.847518 0.439981 2.915029 -3.549039 -2.613075 0.166081 6.195629 -3.959551 9.794859 2.564028 -1.892468 3.377937 0.000000 0.000000 0.000000 69.821159 -59.311399 6.318639 22.591961 -33.639589 6.910945 -20.995974 3.829598 18.617384 0.000000 0.000000 0.000000 -7.125000 0.000000 0.000000 -30.328401 11.572381 -28.002391 0.000000 0.000000 0.000000 -60.524296 -47.963606 -5.064685 -33.271306 -43.537576 -13.608597 10.749784 10.136857 23.036787 0.000000 0.000000 0.000000 7.125000 0.000000 0.000000 38.186601 48.981699 -4.332436
4.218903 14.665610 16.135708 -0.027715 0.915525 -15.064477 0.000000 0.000000 0.000000 4.018511 14.387201 -16.309272 12.640708 18.648503 68.005627 -1.278757 -32.623359 -16.260614 0.822787 -5.787455 -16.168870 0.000000 0.000000 0.000000 -2.938194 -16.244815 -14.196638 -12.149245 -18.452978 66.461028 -2.269281 20.322210 -28.704536 -0.695781 5.332201 -14.858623 0.995191 0.613064 -2.565967 -1.294552 0.816100 1.404908 -1.847557 0.440008 2.915072 -3.549186 -2.613100 0.166075 6.195872 -3.959602 9.794845 2.564137 -1.892490 3.377949 0.000000 0.000000 0.000000 69.820612 -59.311632 6.319185 22.592049 -33.639686 6.910993 -20.996565 3.830964 18.617579 0.000000 0.000000 0.000000 -7.125000 0.000000 0.000000 -30.328668 11.572142 -28.002921 0.000000 0.000000 0.000000 -60.524395 -47.963575 -5.064813 -33.271207 -43.537501 -13.608530 10.749612 10.136976 23.036550 0.000000 0.000000 0.000000 7.125000 0.000000 0.000000 38.186301 48.981532 -4.332215
